<mxfile>
    <diagram id="AVUYEC2pQlE7UhLK80tf" name="페이지-1">
        <mxGraphModel dx="1362" dy="274" grid="1" gridSize="10" guides="1" tooltips="1" connect="1" arrows="1" fold="1" page="1" pageScale="1" pageWidth="827" pageHeight="1169" math="0" shadow="0">
            <root>
                <mxCell id="0"/>
                <mxCell id="1" parent="0"/>
                <mxCell id="2" value="Actor" style="shape=umlActor;verticalLabelPosition=bottom;verticalAlign=top;html=1;outlineConnect=0;" parent="1" vertex="1">
                    <mxGeometry x="-40" y="380" width="30" height="60" as="geometry"/>
                </mxCell>
                <mxCell id="3" value="" style="swimlane;startSize=0;" parent="1" vertex="1">
                    <mxGeometry x="60" y="300" width="200" height="200" as="geometry"/>
                </mxCell>
                <mxCell id="4" value="" style="shape=flexArrow;endArrow=classic;startArrow=classic;html=1;" parent="1" edge="1">
                    <mxGeometry width="100" height="100" relative="1" as="geometry">
                        <mxPoint x="284" y="399.5" as="sourcePoint"/>
                        <mxPoint x="414" y="399.5" as="targetPoint"/>
                    </mxGeometry>
                </mxCell>
                <mxCell id="5" value="" style="swimlane;startSize=0;" parent="1" vertex="1">
                    <mxGeometry x="430" y="300" width="200" height="200" as="geometry"/>
                </mxCell>
                <mxCell id="6" value="Actor" style="shape=umlActor;verticalLabelPosition=bottom;verticalAlign=top;html=1;outlineConnect=0;" parent="1" vertex="1">
                    <mxGeometry x="710" y="370" width="30" height="60" as="geometry"/>
                </mxCell>
                <mxCell id="7" value="Server" style="text;html=1;strokeColor=none;fillColor=none;align=center;verticalAlign=middle;whiteSpace=wrap;rounded=0;" vertex="1" parent="1">
                    <mxGeometry x="330" y="330" width="40" height="20" as="geometry"/>
                </mxCell>
            </root>
        </mxGraphModel>
    </diagram>
</mxfile>